<svg xmlns="http://www.w3.org/2000/svg" xmlns:svg="http://www.w3.org/2000/svg" xmlns:xlink="http://www.w3.org/1999/xlink" id="svg5186" width="22" height="22" version="1.0"><defs id="defs5188"><linearGradient id="linearGradient9795"><stop id="stop9797" offset="0" stop-color="#fff" stop-opacity="1"/><stop id="stop9799" offset="1" stop-color="#fff" stop-opacity="0"/></linearGradient><linearGradient id="linearGradient9783"><stop id="stop9785" offset="0" stop-color="#000" stop-opacity="1"/><stop id="stop9787" offset="1" stop-color="#000" stop-opacity="0"/></linearGradient><linearGradient id="linearGradient9775"><stop id="stop9777" offset="0" stop-color="#f9f9f9" stop-opacity="1"/><stop id="stop9779" offset="1" stop-color="#eeeeec" stop-opacity=".62"/></linearGradient><linearGradient id="linearGradient5948"><stop id="stop5950" offset="0" stop-color="#787b76" stop-opacity="1"/><stop id="stop5956" offset=".871" stop-color="#babcb9" stop-opacity="1"/><stop id="stop5952" offset="1" stop-color="#787b76" stop-opacity="1"/></linearGradient><linearGradient id="linearGradient5908"><stop id="stop5910" offset="0" stop-color="#fff" stop-opacity="1"/><stop id="stop5912" offset="1" stop-color="#fff" stop-opacity="0"/></linearGradient><linearGradient id="linearGradient5898"><stop id="stop5900" offset="0" stop-color="#c00" stop-opacity="1"/><stop id="stop5906" offset=".365" stop-color="#ef0000" stop-opacity="1"/><stop id="stop5902" offset="1" stop-color="#a00" stop-opacity="1"/></linearGradient><linearGradient id="linearGradient5871"><stop id="stop5873" offset="0" stop-color="#f0f2ef" stop-opacity="1"/><stop id="stop5875" offset="1" stop-color="#cdd1c8" stop-opacity="1"/></linearGradient><linearGradient id="linearGradient5843"><stop id="stop5845" offset="0" stop-color="#888a85" stop-opacity="1"/><stop id="stop5847" offset="1" stop-color="#2e3436" stop-opacity="1"/></linearGradient><linearGradient id="linearGradient5835"><stop id="stop5837" offset="0" stop-color="#555753" stop-opacity="1"/><stop id="stop5839" offset="1" stop-color="#2e3436" stop-opacity="1"/></linearGradient><linearGradient id="linearGradient5823"><stop id="stop5825" offset="0" stop-color="#2e3436" stop-opacity="1"/><stop id="stop5827" offset="1" stop-color="#2e3436" stop-opacity="0"/></linearGradient><linearGradient id="linearGradient5234"><stop id="stop5236" offset="0" stop-color="#babdb6" stop-opacity="1"/><stop id="stop5242" offset=".133" stop-color="#eeeeec" stop-opacity="1"/><stop id="stop5238" offset="1" stop-color="#babdb6" stop-opacity="1"/></linearGradient><linearGradient id="linearGradient5240" x1="23.739" x2="23.739" y1="4.157" y2="19.466" gradientTransform="matrix(0.4264603,0,0,0.4242102,0.7314163,-1.0190786)" gradientUnits="userSpaceOnUse" xlink:href="#linearGradient5234"/><linearGradient id="linearGradient5829" x1="23.732" x2="23.688" y1="30.057" y2="22.633" gradientTransform="matrix(0.504449,0,0,0.4956831,-1.1787972,-2.8676867)" gradientUnits="userSpaceOnUse" xlink:href="#linearGradient5823"/><linearGradient id="linearGradient5841" x1="23.938" x2="23.938" y1="30.617" y2="36.358" gradientTransform="matrix(0.4949644,0,0,0.4956831,-1.0253544,-2.9118809)" gradientUnits="userSpaceOnUse" xlink:href="#linearGradient5835"/><linearGradient id="linearGradient5849" x1="20.771" x2="20.563" y1="32.248" y2="23.939" gradientTransform="matrix(0.4949644,0,0,0.4956831,-1.0253544,-2.9118809)" gradientUnits="userSpaceOnUse" xlink:href="#linearGradient5843"/><linearGradient id="linearGradient5904" x1="14.813" x2="14.813" y1="5.624" y2="9" gradientTransform="matrix(0.4821806,0,0,0.4956831,-0.6075269,-1.7628323)" gradientUnits="userSpaceOnUse" xlink:href="#linearGradient5898"/><linearGradient id="linearGradient5914" x1="24.041" x2="24.041" y1="5.069" y2="10.009" gradientTransform="matrix(0.4402542,0,0,0.1815806,0.4224918,0.4725425)" gradientUnits="userSpaceOnUse" xlink:href="#linearGradient5908"/><linearGradient id="linearGradient5928" x1="13.625" x2="14.125" y1="33.125" y2="24" gradientTransform="matrix(0.4726296,0,0,0.4398164,-0.4872749,-0.9481822)" gradientUnits="userSpaceOnUse" xlink:href="#linearGradient5871"/><linearGradient id="linearGradient5954" x1="10.188" x2="10.188" y1="20.25" y2="42.5" gradientTransform="matrix(0.4893375,0,0,0.4852669,-0.7804042,-2.4265523)" gradientUnits="userSpaceOnUse" xlink:href="#linearGradient5948"/><filter id="filter9771" width="1.06" height="1.28" x="-.03" y="-.14"><feGaussianBlur id="feGaussianBlur9773" stdDeviation=".52"/></filter><linearGradient id="linearGradient9781" x1="24.719" x2="23.937" y1="35.959" y2="17.071" gradientTransform="matrix(0.4602758,0,0,0.4666918,-8.5651353e-2,-1.5899781)" gradientUnits="userSpaceOnUse" xlink:href="#linearGradient9775"/><linearGradient id="linearGradient9789" x1="18.313" x2="18.313" y1="20.744" y2="21.814" gradientTransform="matrix(0.462186,0,0,0.4956831,-0.2844319,-1.8181309)" gradientUnits="userSpaceOnUse" xlink:href="#linearGradient9783"/><linearGradient id="linearGradient9801" x1="30.438" x2="29.742" y1="31.829" y2="27.454" gradientUnits="userSpaceOnUse" xlink:href="#linearGradient9795"/></defs><metadata id="metadata5191"/><g id="layer1"><rect id="rect9761" width="41.901" height="8.912" x="3" y="39" fill="#2e3436" fill-opacity="1" stroke="none" stroke-dasharray="none" stroke-dashoffset="0" stroke-linecap="round" stroke-linejoin="round" stroke-miterlimit="4" stroke-opacity="1" stroke-width="1" filter="url(#filter9771)" opacity=".282" rx="4.574" ry="4.062" transform="matrix(0.5024224,0,0,0.5658163,-1.0477284,-5.6470761)"/><path id="path5232" fill="url(#linearGradient5954)" fill-opacity="1" fill-rule="evenodd" stroke="#555753" stroke-linecap="butt" stroke-linejoin="miter" stroke-opacity="1" stroke-width="1" d="M 4.1129711,5.6258452 C 3.5353609,5.6040393 2.958239,6.1004227 2.904919,6.7025312 C 2.4704079,10.238953 1.8262776,14.126823 1.4980737,17.661494 L 1.4980737,19.147624 C 1.5145934,19.914099 2.0221194,20.429719 2.5837914,20.527601 L 19.527103,20.527601 C 20.006177,20.515711 20.537589,20.18612 20.521069,19.557068 L 20.521069,17.64633 L 18.99189,7.0058233 C 18.867687,6.3740913 18.323105,5.7029862 17.569753,5.6258452 L 4.1129711,5.6258452 z"/><path id="path5230" fill="url(#linearGradient5928)" fill-opacity="1" fill-rule="evenodd" stroke="#555753" stroke-linecap="butt" stroke-linejoin="miter" stroke-opacity="1" stroke-width="1" d="M 4.5234741,16.47937 C 3.9895856,16.425506 3.6120238,16.099518 3.6252779,15.501408 L 4.5234741,8.4672884 C 4.6615189,7.9974169 4.9890595,7.6217927 5.5060975,7.6231525 L 15.868307,7.6231525 C 16.381734,7.6087796 16.895157,7.9399763 17.029591,8.3340039 L 18.1714,15.429527 C 18.198362,16.075662 17.912672,16.449675 17.431574,16.434941 L 4.5234741,16.47937 z"/><path id="path5197" fill="url(#linearGradient5841)" fill-opacity="1" fill-rule="evenodd" stroke="url(#linearGradient5849)" stroke-linecap="butt" stroke-linejoin="miter" stroke-opacity="1" stroke-width="1" d="M 9.1059487,8.5623919 L 8.0850846,12.519416 L 6.615659,12.519416 L 10.590841,15.428836 L 15.030054,12.519416 L 13.560628,12.519416 L 12.63257,8.5623919 L 9.1059487,8.5623919 z"/><rect id="rect5224" width="15.002" height="3.004" x="3.484" y=".474" fill="url(#linearGradient5904)" fill-opacity="1" stroke="#930000" stroke-dasharray="none" stroke-dashoffset="0" stroke-linecap="round" stroke-linejoin="round" stroke-miterlimit="4" stroke-opacity="1" stroke-width="1" opacity="1" rx="2.342" ry="1.502"/><rect id="rect5896" width="12.803" height=".715" x="4.605" y="1.484" fill="none" fill-opacity="1" stroke="url(#linearGradient5914)" stroke-dasharray="none" stroke-dashoffset="0" stroke-linecap="round" stroke-linejoin="round" stroke-miterlimit="4" stroke-opacity="1" stroke-width="1" opacity=".583" rx="1.834" ry="1.278"/><path id="path5881" fill="none" fill-opacity="1" fill-rule="evenodd" stroke="url(#linearGradient9781)" stroke-linecap="butt" stroke-linejoin="miter" stroke-opacity="1" stroke-width="1" d="M 4.7900349,6.6108277 C 4.2750723,6.5912173 3.760546,7.0376252 3.7130079,7.5791158 L 2.4314823,16.948327 L 2.4587488,18.462129 C 2.4734775,19.151439 2.9259565,19.445259 3.4267097,19.533286 L 18.545987,19.533286 C 18.973099,19.522594 19.526992,19.396071 19.512264,18.830352 L 19.512264,16.975602 L 18.068823,7.8382357 C 17.958091,7.2701051 17.472573,6.6802014 16.800929,6.6108277 L 4.7900349,6.6108277 z" opacity=".245"/><path id="path5926" fill="url(#linearGradient9789)" fill-opacity="1" fill-rule="evenodd" stroke="none" stroke-linecap="butt" stroke-linejoin="miter" stroke-opacity="1" stroke-width="1" d="M 4.4345593,13.030436 L 5.2839875,9.0868971 L 16.390387,9.1156558 L 17.21298,13.569932 L 16.669091,9.0718432 C 16.566962,8.5753003 16.32185,8.0955307 15.872479,8.1079661 L 5.7412175,8.0860593 C 5.0801089,8.0641536 4.9500748,8.5241859 4.7996146,9.0718432 L 4.4345593,13.030436 z" opacity=".208"/><rect id="rect5226" width="3.026" height="11.017" x="9.467" y=".51" fill="url(#linearGradient5240)" fill-opacity="1" stroke="#888a85" stroke-dasharray="none" stroke-dashoffset="0" stroke-linecap="round" stroke-linejoin="round" stroke-miterlimit="4" stroke-opacity="1" stroke-width="1" opacity="1" rx=".546" ry=".546"/><rect id="rect5244" width="4.102" height="3.987" x="8.898" y="8.044" fill="url(#linearGradient5829)" fill-opacity="1" stroke="none" stroke-dasharray="none" stroke-dashoffset="0" stroke-linecap="round" stroke-linejoin="round" stroke-miterlimit="4" stroke-opacity="1" stroke-width="1" opacity="1" rx="1.076" ry="1.076"/><path id="path5879" fill="none" fill-rule="evenodd" stroke="#fff" stroke-linecap="round" stroke-linejoin="miter" stroke-opacity="1" stroke-width="1" d="M 3.3326918,17.464686 L 18.644873,17.464686" opacity=".435"/><path id="path9791" fill="none" fill-rule="evenodd" stroke="#fff" stroke-linecap="round" stroke-linejoin="miter" stroke-opacity="1" stroke-width="1" d="M 5.4795762,11.492033 L 7.0326686,11.492033"/><path id="path9803" fill="none" fill-rule="evenodd" stroke="#fff" stroke-linecap="round" stroke-linejoin="miter" stroke-opacity="1" stroke-width="1" d="M 14.466935,11.536497 L 16.020027,11.536497"/></g></svg>