<svg xmlns="http://www.w3.org/2000/svg" xmlns:svg="http://www.w3.org/2000/svg" xmlns:xlink="http://www.w3.org/1999/xlink" id="svg5186" width="32" height="32" version="1.0"><defs id="defs5188"><linearGradient id="linearGradient9795"><stop id="stop9797" offset="0" stop-color="#fff" stop-opacity="1"/><stop id="stop9799" offset="1" stop-color="#fff" stop-opacity="0"/></linearGradient><linearGradient id="linearGradient9783"><stop id="stop9785" offset="0" stop-color="#000" stop-opacity="1"/><stop id="stop9787" offset="1" stop-color="#000" stop-opacity="0"/></linearGradient><linearGradient id="linearGradient9775"><stop id="stop9777" offset="0" stop-color="#f9f9f9" stop-opacity="1"/><stop id="stop9779" offset="1" stop-color="#eeeeec" stop-opacity=".62"/></linearGradient><linearGradient id="linearGradient5948"><stop id="stop5950" offset="0" stop-color="#787b76" stop-opacity="1"/><stop id="stop5956" offset=".871" stop-color="#babcb9" stop-opacity="1"/><stop id="stop5952" offset="1" stop-color="#787b76" stop-opacity="1"/></linearGradient><linearGradient id="linearGradient5908"><stop id="stop5910" offset="0" stop-color="#fff" stop-opacity="1"/><stop id="stop5912" offset="1" stop-color="#fff" stop-opacity="0"/></linearGradient><linearGradient id="linearGradient5898"><stop id="stop5900" offset="0" stop-color="#c00" stop-opacity="1"/><stop id="stop5906" offset=".365" stop-color="#ef0000" stop-opacity="1"/><stop id="stop5902" offset="1" stop-color="#a00" stop-opacity="1"/></linearGradient><linearGradient id="linearGradient5871"><stop id="stop5873" offset="0" stop-color="#f0f2ef" stop-opacity="1"/><stop id="stop5875" offset="1" stop-color="#cdd1c8" stop-opacity="1"/></linearGradient><linearGradient id="linearGradient5843"><stop id="stop5845" offset="0" stop-color="#888a85" stop-opacity="1"/><stop id="stop5847" offset="1" stop-color="#2e3436" stop-opacity="1"/></linearGradient><linearGradient id="linearGradient5835"><stop id="stop5837" offset="0" stop-color="#555753" stop-opacity="1"/><stop id="stop5839" offset="1" stop-color="#2e3436" stop-opacity="1"/></linearGradient><linearGradient id="linearGradient5823"><stop id="stop5825" offset="0" stop-color="#2e3436" stop-opacity="1"/><stop id="stop5827" offset="1" stop-color="#2e3436" stop-opacity="0"/></linearGradient><linearGradient id="linearGradient5234"><stop id="stop5236" offset="0" stop-color="#babdb6" stop-opacity="1"/><stop id="stop5242" offset=".133" stop-color="#eeeeec" stop-opacity="1"/><stop id="stop5238" offset="1" stop-color="#babdb6" stop-opacity="1"/></linearGradient><linearGradient id="linearGradient5240" x1="23.739" x2="23.739" y1="4.157" y2="19.466" gradientTransform="matrix(0.7032627,0,0,0.690446,-0.8454203,-1.9237523)" gradientUnits="userSpaceOnUse" xlink:href="#linearGradient5234"/><linearGradient id="linearGradient5829" x1="23.732" x2="23.688" y1="30.057" y2="22.633" gradientTransform="matrix(0.7378506,0,0,0.6657899,-1.7391304,-1.0117597)" gradientUnits="userSpaceOnUse" xlink:href="#linearGradient5823"/><linearGradient id="linearGradient5841" x1="23.938" x2="23.938" y1="30.617" y2="36.358" gradientTransform="matrix(0.6908074,0,0,0.6912969,-0.59029,-1.5732658)" gradientUnits="userSpaceOnUse" xlink:href="#linearGradient5835"/><linearGradient id="linearGradient5849" x1="20.771" x2="20.563" y1="32.248" y2="23.939" gradientTransform="matrix(0.6908074,0,0,0.6912969,-0.59029,-1.5732658)" gradientUnits="userSpaceOnUse" xlink:href="#linearGradient5843"/><linearGradient id="linearGradient5904" x1="14.813" x2="14.813" y1="5.624" y2="9" gradientTransform="matrix(0.6908074,0,0,0.8517136,-0.59029,-3.3579743)" gradientUnits="userSpaceOnUse" xlink:href="#linearGradient5898"/><linearGradient id="linearGradient5914" x1="24.041" x2="24.041" y1="5.069" y2="10.009" gradientTransform="matrix(0.6604128,0,0,0.7361687,0.1404121,-2.4418757)" gradientUnits="userSpaceOnUse" xlink:href="#linearGradient5908"/><linearGradient id="linearGradient5928" x1="13.625" x2="14.125" y1="33.125" y2="24" gradientTransform="matrix(0.67645,0,0,0.6956862,-0.2885936,-1.923967)" gradientUnits="userSpaceOnUse" xlink:href="#linearGradient5871"/><linearGradient id="linearGradient5954" x1="10.188" x2="10.188" y1="20.25" y2="42.5" gradientTransform="matrix(0.6908074,0,0,0.7030815,-0.59029,-2.2107408)" gradientUnits="userSpaceOnUse" xlink:href="#linearGradient5948"/><filter id="filter9771" width="1.06" height="1.28" x="-.03" y="-.14"><feGaussianBlur id="feGaussianBlur9773" stdDeviation=".52"/></filter><linearGradient id="linearGradient9781" x1="24.719" x2="23.937" y1="35.959" y2="17.071" gradientTransform="matrix(0.6764492,0,0,0.6747393,-0.1582154,-1.2823333)" gradientUnits="userSpaceOnUse" xlink:href="#linearGradient9775"/><linearGradient id="linearGradient9789" x1="18.313" x2="18.313" y1="20.744" y2="21.814" gradientTransform="matrix(0.6716258,0,0,0.6912969,-0.2176661,-1.7500427)" gradientUnits="userSpaceOnUse" xlink:href="#linearGradient9783"/><linearGradient id="linearGradient9801" x1="30.438" x2="29.742" y1="31.829" y2="27.454" gradientUnits="userSpaceOnUse" xlink:href="#linearGradient9795"/></defs><metadata id="metadata5191"/><g id="layer1"><rect id="rect9761" width="41.901" height="8.912" x="-3.976" y="35.927" fill="#2e3436" fill-opacity="1" stroke="none" stroke-dasharray="none" stroke-dashoffset="0" stroke-linecap="round" stroke-linejoin="round" stroke-miterlimit="4" stroke-opacity="1" stroke-width="1" filter="url(#filter9771)" opacity=".282" rx="3.327" ry="3.324" transform="matrix(0.6908074,0,0,0.6912969,4.2286202,0.5512439)"/><path id="path5232" fill="url(#linearGradient5954)" fill-opacity="1" fill-rule="evenodd" stroke="#555753" stroke-linecap="butt" stroke-linejoin="miter" stroke-opacity="1" stroke-width="1" d="M 6.317784,9.4560179 C 5.5023605,9.4244243 4.687626,10.143612 4.6123532,11.015979 C 3.9989453,16.139744 3.0896138,21.274661 2.6262819,26.395887 L 2.6262819,28.549074 C 2.6496031,29.659585 3.3660877,30.406643 4.1590109,30.548462 L 28.078217,30.548462 C 28.754534,30.531234 29.504741,30.053704 29.48142,29.142299 L 29.48142,26.373916 L 27.322647,11.455405 C 27.147307,10.540117 26.378509,9.567784 25.314988,9.4560179 L 6.317784,9.4560179 z"/><path id="path5230" fill="url(#linearGradient5928)" fill-opacity="1" fill-rule="evenodd" stroke="#555753" stroke-linecap="butt" stroke-linejoin="miter" stroke-opacity="1" stroke-width="1" d="M 6.8830298,25.642329 C 6.118903,25.557127 5.5785183,25.041492 5.5974882,24.095423 L 6.8830298,12.969096 C 7.080606,12.225871 7.549398,11.63172 8.2894072,11.633873 L 23.120297,11.633873 C 23.855136,11.611138 24.589975,12.135013 24.782381,12.758273 L 26.416593,23.981724 C 26.455182,25.003758 26.046289,25.595359 25.357718,25.572054 L 6.8830298,25.642329 z"/><path id="path5197" fill="url(#linearGradient5841)" fill-opacity="1" fill-rule="evenodd" stroke="url(#linearGradient5849)" stroke-linecap="butt" stroke-linejoin="miter" stroke-opacity="1" stroke-width="1" d="M 13.549674,12.555114 L 12.124884,20.518727 L 10.074049,20.518727 L 15.622096,24.43678 L 21.817775,20.518727 L 19.766941,20.518727 L 18.471677,12.555114 L 13.549674,12.555114 z"/><rect id="rect5224" width="21.493" height="5.162" x="5.271" y=".486" fill="url(#linearGradient5904)" fill-opacity="1" stroke="#930000" stroke-dasharray="none" stroke-dashoffset="0" stroke-linecap="round" stroke-linejoin="round" stroke-miterlimit="4" stroke-opacity="1" stroke-width="1" opacity="1" rx="4.397" ry="1.367"/><rect id="rect5896" width="19.205" height="2.9" x="6.415" y="1.658" fill="none" fill-opacity="1" stroke="url(#linearGradient5914)" stroke-dasharray="none" stroke-dashoffset="0" stroke-linecap="round" stroke-linejoin="round" stroke-miterlimit="4" stroke-opacity="1" stroke-width="1" opacity=".583" rx="1.48" ry=".836"/><path id="path5881" fill="none" fill-opacity="1" fill-rule="evenodd" stroke="url(#linearGradient9781)" stroke-linecap="butt" stroke-linejoin="miter" stroke-opacity="1" stroke-width="1" d="M 7.0073872,10.574325 C 6.2505671,10.545974 5.4943882,11.191386 5.4245233,11.97427 L 3.5411159,25.5202 C 3.548497,25.604598 3.5621121,25.693538 3.5811885,25.776528 L 3.5811885,27.708844 C 3.6028346,28.705442 4.2678253,29.356148 5.0037622,29.483419 L 27.223963,29.483419 C 27.851673,29.46796 28.527928,29.059129 28.506284,28.241216 L 28.506284,25.75681 C 28.511209,25.73758 28.522248,25.71663 28.526319,25.697658 L 28.506284,25.559635 L 28.506284,25.421613 L 28.486247,25.421613 L 26.522694,12.348903 C 26.359956,11.527503 25.64641,10.674626 24.659324,10.574325 L 7.0073872,10.574325 z" opacity=".245"/><path id="path5926" fill="url(#linearGradient9789)" fill-opacity="1" fill-rule="evenodd" stroke="none" stroke-linecap="butt" stroke-linejoin="miter" stroke-opacity="1" stroke-width="1" d="M 6.6397375,18.958287 L 7.8740842,13.458489 L 24.013351,13.498598 L 25.208705,19.710687 L 24.41835,13.437495 C 24.269941,12.745 23.913758,12.075896 23.260754,12.093239 L 8.5385083,12.062687 C 7.577818,12.032136 7.3888588,12.673713 7.1702178,13.437495 L 6.6397375,18.958287 z" opacity=".208"/><rect id="rect5226" width="4.991" height="17.931" x="13.56" y=".565" fill="url(#linearGradient5240)" fill-opacity="1" stroke="#888a85" stroke-dasharray="none" stroke-dashoffset="0" stroke-linecap="round" stroke-linejoin="round" stroke-miterlimit="4" stroke-opacity="1" stroke-width="1" opacity="1" rx="1.076" ry="1.076"/><rect id="rect5244" width="6" height="5.355" x="13" y="13.645" fill="url(#linearGradient5829)" fill-opacity="1" stroke="none" stroke-dasharray="none" stroke-dashoffset="0" stroke-linecap="round" stroke-linejoin="round" stroke-miterlimit="4" stroke-opacity="1" stroke-width="1" opacity="1" rx="1.076" ry="1.076"/><path id="path5879" fill="none" fill-rule="evenodd" stroke="#fff" stroke-linecap="round" stroke-linejoin="miter" stroke-opacity="1" stroke-width="1" d="M 8.5849905,27.548041 L 26.408297,27.548041" opacity=".435"/><rect id="rect5892" width="3.029" height="15.841" x="14.5" y="1.629" fill="none" fill-opacity="1" stroke="#fff" stroke-dasharray="none" stroke-dashoffset="0" stroke-linecap="round" stroke-linejoin="round" stroke-miterlimit="4" stroke-opacity="1" stroke-width="1" opacity=".227" rx="1.076" ry=".634"/><path id="path5831" fill="none" fill-rule="evenodd" stroke="#888a85" stroke-linecap="round" stroke-linejoin="miter" stroke-opacity="1" stroke-width="1" d="M 13.485231,19.539018 L 18.364058,19.539018" opacity=".62"/><path id="path5833" fill="none" fill-rule="evenodd" stroke="#888a85" stroke-linecap="round" stroke-linejoin="miter" stroke-opacity="1" stroke-width="1" d="M 13.461318,21.54033 L 18.476365,21.54033" opacity=".422"/><path id="path5958" fill="none" fill-rule="evenodd" stroke="#5d5d5c" stroke-linecap="round" stroke-linejoin="miter" stroke-opacity="1" stroke-width="1" d="M 13.453138,20.49548 L 18.527717,20.49548" opacity=".62"/><path id="path9791" fill="none" fill-rule="evenodd" stroke="#fff" stroke-linecap="round" stroke-linejoin="miter" stroke-opacity="1" stroke-width="1" d="M 9.1456221,19.504973 L 11.313228,19.504973"/><path id="path9803" fill="none" fill-rule="evenodd" stroke="#fff" stroke-linecap="round" stroke-linejoin="miter" stroke-opacity="1" stroke-width="1" d="M 20.838337,19.505962 L 23.005943,19.505962"/><path id="path5119" fill="#fff" fill-opacity="1" stroke="none" stroke-dasharray="none" stroke-dashoffset="0" stroke-linecap="round" stroke-linejoin="round" stroke-miterlimit="4" stroke-opacity="1" stroke-width="1" d="M 11.048544,42.188465 A 1.1932427,1.0827572 0 1 1 8.6620582,42.188465 A 1.1932427,1.0827572 0 1 1 11.048544,42.188465 z" opacity=".335" transform="matrix(0.3931137,0,0,0.4621274,2.6082375,8.0054209)"/></g></svg>