<svg xmlns="http://www.w3.org/2000/svg" xmlns:svg="http://www.w3.org/2000/svg" xmlns:xlink="http://www.w3.org/1999/xlink" id="svg2" width="22" height="22" version="1.0"><defs id="defs4"><linearGradient id="StandardGradient" x1="11.64" x2="11.64" y1="4.078" y2="17.924" gradientUnits="userSpaceOnUse"><stop id="stop3283" offset="0" stop-color="#000" stop-opacity=".863"/><stop id="stop3285" offset="1" stop-color="#000" stop-opacity=".471"/></linearGradient><linearGradient id="linearGradient3627" x1="11.64" x2="11.64" y1="4.078" y2="17.924" gradientTransform="translate(-30,0)" gradientUnits="userSpaceOnUse" xlink:href="#StandardGradient"/><clipPath id="clipPath3634" clipPathUnits="userSpaceOnUse"><path id="path3636" fill="#f0f" fill-opacity="1" stroke="none" d="m -30,0 0,22 22,0 0,-22 -22,0 z m 8.96875,4.0625 4.03125,0 0,4.9375 4.9375,0 0,4.0625 -4.9375,0 0,4.875 -4.03125,0 0,-4.875 -4.90625,0 0,-4.0625 4.90625,0 0,-4.9375 z" display="inline"/></clipPath><filter id="filter3638"><feGaussianBlur id="feGaussianBlur3640" stdDeviation=".415"/></filter><linearGradient id="linearGradient4584" x1="11.64" x2="11.64" y1="4.078" y2="17.924" gradientUnits="userSpaceOnUse" xlink:href="#StandardGradient"/><linearGradient id="linearGradient4588" x1="11.64" x2="11.64" y1="4.078" y2="17.924" gradientUnits="userSpaceOnUse" xlink:href="#StandardGradient"/></defs><metadata id="metadata7"/><g id="layer3" display="inline"><path id="path4586" fill="#fff" fill-opacity="1" stroke="none" d="M 8.75 2.96875 A 1.1082912 1.1082912 0 0 0 7.875 4.0625 L 7.875 7.90625 L 4.0625 7.90625 A 1.1082912 1.1082912 0 0 0 2.96875 9 L 2.96875 13.0625 A 1.1082912 1.1082912 0 0 0 4.0625 14.15625 L 7.875 14.15625 L 7.875 17.9375 A 1.1082912 1.1082912 0 0 0 8.96875 19.03125 L 13 19.03125 A 1.1082912 1.1082912 0 0 0 14.09375 17.9375 L 14.09375 14.15625 L 17.9375 14.15625 A 1.1082912 1.1082912 0 0 0 19.03125 13.0625 L 19.03125 9 A 1.1082912 1.1082912 0 0 0 17.9375 7.90625 L 14.09375 7.90625 L 14.09375 4.0625 A 1.1082912 1.1082912 0 0 0 13 2.96875 L 8.96875 2.96875 A 1.1082912 1.1082912 0 0 0 8.75 2.96875 z M 8.96875 4.0625 L 13 4.0625 L 13 9 L 17.9375 9 L 17.9375 13.0625 L 13 13.0625 L 13 17.9375 L 8.96875 17.9375 L 8.96875 13.0625 L 4.0625 13.0625 L 4.0625 9 L 8.96875 9 L 8.96875 4.0625 z" display="inline" opacity=".15"/><path id="Symbol" fill="url(#StandardGradient)" fill-opacity="1" stroke="none" stroke-dasharray="none" stroke-linecap="round" stroke-linejoin="miter" stroke-miterlimit="4" stroke-opacity="1" stroke-width="1" d="M 8.9700858,4.0775535 L 8.9700858,9.0129095 L 4.0775538,9.0129095 L 4.0775538,13.060508 L 8.9700858,13.060508 L 8.9700858,17.922446 L 13,17.922446 L 13,13.060508 L 17.922446,13.060508 L 17.922446,9.0129095 L 13,9.0129095 L 13,4.0775535 L 8.9700858,4.0775535 z" display="inline" opacity="1"/><path id="BevelShadow" fill="#000" fill-opacity="1" stroke="none" stroke-dasharray="none" stroke-linecap="round" stroke-linejoin="miter" stroke-miterlimit="4" stroke-opacity="1" stroke-width="1" d="M 8.96875 4.0625 L 8.96875 5.15625 L 13 5.15625 L 13 4.0625 L 8.96875 4.0625 z M 4.0625 9 L 4.0625 10.09375 L 8.96875 10.09375 L 8.96875 9 L 4.0625 9 z M 13 9 L 13 10.09375 L 17.9375 10.09375 L 17.9375 9 L 13 9 z" display="inline" opacity=".5"/><path id="BevelHighlight" fill="#fff" fill-opacity="1" stroke="none" stroke-dasharray="none" stroke-linecap="round" stroke-linejoin="miter" stroke-miterlimit="4" stroke-opacity="1" stroke-width="1" d="M 4.0625 13.0625 L 4.0625 14.125 L 8.96875 14.125 L 8.96875 13.0625 L 4.0625 13.0625 z M 13 13.0625 L 13 14.125 L 17.9375 14.125 L 17.9375 13.0625 L 13 13.0625 z M 8.96875 17.9375 L 8.96875 19 L 13 19 L 13 17.9375 L 8.96875 17.9375 z" display="inline" opacity=".3"/></g></svg>