<svg xmlns="http://www.w3.org/2000/svg" xmlns:svg="http://www.w3.org/2000/svg" xmlns:xlink="http://www.w3.org/1999/xlink" id="svg2" width="22" height="22" version="1.0"><defs id="defs4"><linearGradient id="StandardGradient" x1="9.236" x2="9.236" y1="7.448" y2="14.312" gradientTransform="matrix(1.6041892,0,0,1.8958598,-4.6625321,-10.120214)" gradientUnits="userSpaceOnUse"><stop id="stop3389" offset="0" stop-color="#000" stop-opacity=".863"/><stop id="stop3391" offset="1" stop-color="#000" stop-opacity=".471"/></linearGradient><linearGradient id="linearGradient2415" x1="9.236" x2="9.236" y1="7.448" y2="14.312" gradientTransform="matrix(1.6041892,0,0,1.8958598,15.337468,-10.120214)" gradientUnits="userSpaceOnUse" xlink:href="#StandardGradient"/><linearGradient id="linearGradient3627" x1="9.236" x2="9.236" y1="7.448" y2="14.312" gradientTransform="matrix(1.6041892,0,0,1.8958598,-14.662532,-10.120214)" gradientUnits="userSpaceOnUse" xlink:href="#StandardGradient"/><clipPath id="clipPath3634" clipPathUnits="userSpaceOnUse"><path id="path3636" fill="#f0f" fill-opacity="1" stroke="none" d="m -30,0 0,22 22,0 0,-22 -22,0 z m 6,5 4,0 0,12 -4,0 0,-12 z m 6,0 4,0 0,12 -4,0 0,-12 z" display="inline"/></clipPath><filter id="filter3638"><feGaussianBlur id="feGaussianBlur3640" stdDeviation=".33"/></filter><linearGradient id="linearGradient5020" x1="9.236" x2="9.236" y1="7.448" y2="14.312" gradientTransform="matrix(1.6041892,0,0,1.8958598,15.337468,-10.120214)" gradientUnits="userSpaceOnUse" xlink:href="#StandardGradient"/><linearGradient id="linearGradient5024" x1="9.236" x2="9.236" y1="7.448" y2="14.312" gradientTransform="matrix(1.6041892,0,0,1.8958598,15.337468,-10.120214)" gradientUnits="userSpaceOnUse" xlink:href="#StandardGradient"/></defs><metadata id="metadata7"/><g id="layer1"><path id="path5022" fill="#fff" fill-opacity="1" fill-rule="nonzero" stroke="none" d="M 5.875 3.84375 A 1.1630337 1.1630337 0 0 0 4.84375 5 L 4.84375 17 A 1.1630337 1.1630337 0 0 0 6 18.15625 L 10 18.15625 A 1.1630337 1.1630337 0 0 0 11 17.59375 A 1.1630337 1.1630337 0 0 0 12 18.15625 L 16 18.15625 A 1.1630337 1.1630337 0 0 0 17.15625 17 L 17.15625 5 A 1.1630337 1.1630337 0 0 0 16 3.84375 L 12 3.84375 A 1.1630337 1.1630337 0 0 0 11 4.40625 A 1.1630337 1.1630337 0 0 0 10 3.84375 L 6 3.84375 A 1.1630337 1.1630337 0 0 0 5.875 3.84375 z M 6 5 L 10 5 L 10 17 L 6 17 L 6 5 z M 12 5 L 16 5 L 16 17 L 12 17 L 12 5 z" opacity=".15"/><path id="Symbol" fill="url(#linearGradient2415)" fill-opacity="1" fill-rule="nonzero" stroke="none" stroke-dasharray="none" stroke-dashoffset="0" stroke-linecap="square" stroke-linejoin="round" stroke-miterlimit="4" stroke-opacity="1" stroke-width="1" d="M 6,5 L 6,17 L 10,17 L 10,5 L 6,5 z M 12,5 L 12,17 L 16,17 L 16,5 L 12,5 z" opacity="1"/><path id="BevelShadow" fill="#000" fill-opacity="1" fill-rule="nonzero" stroke="none" stroke-dasharray="none" stroke-dashoffset="0" stroke-linecap="square" stroke-linejoin="round" stroke-miterlimit="4" stroke-opacity="1" stroke-width="1" d="M 6 5 L 6 6 L 10 6 L 10 5 L 6 5 z M 12 5 L 12 6 L 16 6 L 16 5 L 12 5 z" opacity=".5"/><path id="BevelHighlight" fill="#fff" fill-opacity="1" fill-rule="nonzero" stroke="none" stroke-dasharray="none" stroke-dashoffset="0" stroke-linecap="square" stroke-linejoin="round" stroke-miterlimit="4" stroke-opacity="1" stroke-width="1" d="M 6,17 L 6,18 L 10,18 L 10,17 L 6,17 z M 12,17 L 12,18 L 16,18 L 16,17 L 12,17 z" opacity=".3"/></g></svg>