<svg xmlns="http://www.w3.org/2000/svg" xmlns:svg="http://www.w3.org/2000/svg" xmlns:xlink="http://www.w3.org/1999/xlink" id="svg2" width="22" height="22" version="1.0"><defs id="defs4"><linearGradient id="StandardGradient" x1="9.236" x2="9.236" y1="7.448" y2="14.312" gradientTransform="scale(0.9306049,1.0745699)" gradientUnits="userSpaceOnUse"><stop id="stop3389" offset="0" stop-color="#000" stop-opacity=".863"/><stop id="stop3391" offset="1" stop-color="#000" stop-opacity=".471"/></linearGradient><linearGradient id="linearGradient3626" x1="9.236" x2="9.236" y1="7.448" y2="14.312" gradientTransform="scale(0.9306049,1.0745699)" gradientUnits="userSpaceOnUse" xlink:href="#StandardGradient"/><clipPath id="clipPath3633" clipPathUnits="userSpaceOnUse"><path id="path3635" fill="#f0f" fill-opacity="1" stroke="none" d="m 2.7047777,5.7361189 0,12.4695601 12.7624023,0 0,-12.4695601 -12.7624023,0 z m 3.4806551,2.2671928 6.3812012,3.6841883 -6.3812012,3.684188 0,-7.3683763 z" display="inline"/></clipPath><filter id="filter3637"><feGaussianBlur id="feGaussianBlur3639" stdDeviation=".206"/></filter><linearGradient id="linearGradient5009" x1="9.236" x2="9.236" y1="7.448" y2="14.312" gradientTransform="scale(0.9306049,1.0745699)" gradientUnits="userSpaceOnUse" xlink:href="#StandardGradient"/><linearGradient id="linearGradient5013" x1="9.236" x2="9.236" y1="7.448" y2="14.312" gradientTransform="matrix(1.6041892,0,0,1.8958598,-4.6625321,-10.120214)" gradientUnits="userSpaceOnUse" xlink:href="#StandardGradient"/></defs><metadata id="metadata7"/><g id="layer1"><path id="path5011" fill="#fff" fill-opacity="1" fill-rule="nonzero" stroke="none" d="M 5.8125 2.875 A 1.0860966 1.1116032 0 0 0 5.78125 2.90625 A 1.0860966 1.1116032 0 0 0 4.9375 4 L 4.9375 17 A 1.0860966 1.1116032 0 0 0 6.53125 17.9375 L 17.53125 11.4375 A 1.0860966 1.1116032 0 0 0 17.53125 9.5625 L 6.53125 3.0625 A 1.0860966 1.1116032 0 0 0 5.8125 2.875 z M 6 4 L 17 10.5 L 6 17 L 6 4 z" opacity=".15"/><path id="Symbol" fill="url(#StandardGradient)" fill-opacity="1" fill-rule="nonzero" stroke="none" stroke-dasharray="none" stroke-dashoffset="0" stroke-linecap="square" stroke-linejoin="round" stroke-miterlimit="4" stroke-opacity="1" stroke-width="1" d="M 12.566634,11.6875 L 6.1854329,15.371688 L 6.1854329,8.0033117 L 12.566634,11.6875 z" opacity="1" transform="matrix(1.7238134,0,0,1.7642964,-4.6625321,-10.120214)"/><path id="BevelShadow" fill="#000" fill-opacity="1" fill-rule="nonzero" stroke="none" stroke-dasharray="none" stroke-dashoffset="0" stroke-linecap="square" stroke-linejoin="round" stroke-miterlimit="4" stroke-opacity="1" stroke-width="1" d="M 6 4 L 6 5 L 16.15625 11 L 17 10.5 L 6 4 z" opacity=".5"/><path id="BevelHighlight" fill="#fff" fill-opacity="1" fill-rule="nonzero" stroke="none" stroke-dasharray="none" stroke-dashoffset="0" stroke-linecap="square" stroke-linejoin="round" stroke-miterlimit="4" stroke-opacity="1" stroke-width="1" d="M 17 10.5 L 6 17 L 6 18 L 17 11.5 L 17 10.5 z" opacity=".3"/></g></svg>