<svg xmlns="http://www.w3.org/2000/svg" xmlns:svg="http://www.w3.org/2000/svg" xmlns:xlink="http://www.w3.org/1999/xlink" id="svg2" width="22" height="22" display="inline" version="1.0"><defs id="defs4"><linearGradient id="linearGradient3295"><stop id="stop3297" offset="0" stop-color="#559829" stop-opacity="1"/><stop id="stop3299" offset="1" stop-color="#86c837" stop-opacity="1"/></linearGradient><linearGradient id="linearGradient3287"><stop id="stop3289" offset="0" stop-color="#cd0000" stop-opacity="1"/><stop id="stop3291" offset="1" stop-color="#e55300" stop-opacity="1"/></linearGradient><linearGradient id="linearGradient3279"><stop id="stop3281" offset="0" stop-color="#f08e00" stop-opacity="1"/><stop id="stop3283" offset="1" stop-color="#ffd200" stop-opacity="1"/></linearGradient><linearGradient id="linearGradient3271"><stop id="stop3273" offset="0" stop-color="#395d93" stop-opacity="1"/><stop id="stop3275" offset="1" stop-color="#6e92c7" stop-opacity="1"/></linearGradient><linearGradient id="linearGradient3327"><stop id="stop3330" offset="0" stop-color="#000" stop-opacity="1"/><stop id="stop3333" offset="1" stop-color="#000" stop-opacity="0"/></linearGradient><linearGradient id="linearGradient3335" x1="11.375" x2="11.375" y1="22" y2="-9.817" gradientUnits="userSpaceOnUse" xlink:href="#linearGradient3327"/><linearGradient id="linearGradient4081"><stop id="stop4083" offset="0" stop-color="#aaa" stop-opacity="1"/><stop id="stop4085" offset="1" stop-color="#f0f0f0" stop-opacity="1"/></linearGradient><linearGradient id="linearGradient4057"><stop id="stop4059" offset="0" stop-color="#816647" stop-opacity="1"/><stop id="stop4061" offset="1" stop-color="#a6845d" stop-opacity="1"/></linearGradient><linearGradient id="linearGradient3929"><stop id="stop3931" offset="0" stop-color="#000" stop-opacity="1"/><stop id="stop3933" offset="1" stop-color="#000" stop-opacity="0"/></linearGradient><linearGradient id="linearGradient4051" x1="9.495" x2="9.495" y1="15.517" y2="-4.179" gradientUnits="userSpaceOnUse" xlink:href="#linearGradient3929"/><linearGradient id="linearGradient4063" x1="9.171" x2="9.171" y1="21" y2=".972" gradientUnits="userSpaceOnUse" xlink:href="#linearGradient4057"/><linearGradient id="linearGradient4089" x1="6.102" x2="6.102" y1="154.582" y2="36.995" gradientUnits="userSpaceOnUse" xlink:href="#linearGradient4081"/><linearGradient id="linearGradient4103" x1="6.102" x2="6.102" y1="154.582" y2="36.995" gradientUnits="userSpaceOnUse" xlink:href="#linearGradient4081"/><linearGradient id="linearGradient4105" x1="6.102" x2="6.102" y1="154.582" y2="36.995" gradientUnits="userSpaceOnUse" xlink:href="#linearGradient4081"/><linearGradient id="linearGradient4107" x1="6.102" x2="6.102" y1="154.582" y2="36.995" gradientUnits="userSpaceOnUse" xlink:href="#linearGradient4081"/><linearGradient id="linearGradient4109" x1="6.102" x2="6.102" y1="154.582" y2="36.995" gradientUnits="userSpaceOnUse" xlink:href="#linearGradient4081"/><linearGradient id="linearGradient4111" x1="6.102" x2="6.102" y1="154.582" y2="36.995" gradientUnits="userSpaceOnUse" xlink:href="#linearGradient4081"/><linearGradient id="linearGradient4113" x1="6.102" x2="6.102" y1="154.582" y2="36.995" gradientUnits="userSpaceOnUse" xlink:href="#linearGradient4081"/><linearGradient id="linearGradient4115" x1="6.102" x2="6.102" y1="154.582" y2="36.995" gradientUnits="userSpaceOnUse" xlink:href="#linearGradient4081"/><linearGradient id="linearGradient4117" x1="6.102" x2="6.102" y1="154.582" y2="36.995" gradientUnits="userSpaceOnUse" xlink:href="#linearGradient4081"/><linearGradient id="linearGradient4119" x1="6.102" x2="6.102" y1="154.582" y2="36.995" gradientUnits="userSpaceOnUse" xlink:href="#linearGradient4081"/><linearGradient id="linearGradient4121" x1="6.102" x2="6.102" y1="154.582" y2="36.995" gradientUnits="userSpaceOnUse" xlink:href="#linearGradient4081"/><linearGradient id="linearGradient4123" x1="6.102" x2="6.102" y1="154.582" y2="36.995" gradientUnits="userSpaceOnUse" xlink:href="#linearGradient4081"/><linearGradient id="linearGradient4125" x1="6.102" x2="6.102" y1="154.582" y2="36.995" gradientUnits="userSpaceOnUse" xlink:href="#linearGradient4081"/><linearGradient id="linearGradient4127" x1="6.102" x2="6.102" y1="154.582" y2="36.995" gradientUnits="userSpaceOnUse" xlink:href="#linearGradient4081"/><linearGradient id="linearGradient4129" x1="6.102" x2="6.102" y1="154.582" y2="36.995" gradientUnits="userSpaceOnUse" xlink:href="#linearGradient4081"/><linearGradient id="linearGradient4132" x1="6.102" x2="6.102" y1="154.582" y2="36.995" gradientTransform="matrix(0.1317916,0,0,0.1317916,11.619896,-1.9882468)" gradientUnits="userSpaceOnUse" xlink:href="#linearGradient4081"/><linearGradient id="linearGradient4141" x1="6.102" x2="6.102" y1="154.582" y2="36.995" gradientTransform="matrix(0.1317916,0,0,0.1317916,11.619896,-1.9882468)" gradientUnits="userSpaceOnUse" xlink:href="#linearGradient4081"/><linearGradient id="linearGradient4148" x1="6.102" x2="6.102" y1="154.582" y2="36.995" gradientTransform="matrix(0.1317916,0,0,0.1317916,11.619896,-1.9882468)" gradientUnits="userSpaceOnUse" xlink:href="#linearGradient4081"/><linearGradient id="linearGradient4158" x1="6.102" x2="6.102" y1="154.582" y2="36.995" gradientTransform="matrix(0.1317916,0,0,0.1317916,11.619896,-1.9882468)" gradientUnits="userSpaceOnUse" xlink:href="#linearGradient4081"/><linearGradient id="linearGradient4180" x1="6.102" x2="6.102" y1="154.582" y2="36.995" gradientUnits="userSpaceOnUse" xlink:href="#linearGradient4081"/><linearGradient id="linearGradient4182" x1="6.102" x2="6.102" y1="154.582" y2="36.995" gradientTransform="matrix(0.1317916,0,0,0.1317916,11.619896,-1.9882468)" gradientUnits="userSpaceOnUse" xlink:href="#linearGradient4081"/><linearGradient id="linearGradient4184" x1="6.102" x2="6.102" y1="154.582" y2="36.995" gradientUnits="userSpaceOnUse" xlink:href="#linearGradient4081"/><linearGradient id="linearGradient4186" x1="6.102" x2="6.102" y1="154.582" y2="36.995" gradientTransform="matrix(0.1317916,0,0,0.1317916,11.619896,-1.9882468)" gradientUnits="userSpaceOnUse" xlink:href="#linearGradient4081"/><linearGradient id="linearGradient2480" x1="6.102" x2="6.102" y1="154.582" y2="36.995" gradientTransform="matrix(0.1256322,0,0,0.1256322,11.921746,-1.0005124)" gradientUnits="userSpaceOnUse" xlink:href="#linearGradient4081"/><linearGradient id="linearGradient2483" x1="6.102" x2="6.102" y1="154.582" y2="36.995" gradientTransform="matrix(0.1256322,0,0,0.1256322,11.921746,-1.0005124)" gradientUnits="userSpaceOnUse" xlink:href="#linearGradient4081"/><linearGradient id="linearGradient2489" x1="6.102" x2="6.102" y1="154.582" y2="36.995" gradientTransform="matrix(0.1256322,0,0,0.1256322,11.921746,-1.0005124)" gradientUnits="userSpaceOnUse" xlink:href="#linearGradient4081"/><linearGradient id="linearGradient2495" x1="6.102" x2="6.102" y1="154.582" y2="36.995" gradientTransform="matrix(0.1256322,0,0,0.1256322,11.921746,-1.0005124)" gradientUnits="userSpaceOnUse" xlink:href="#linearGradient4081"/><linearGradient id="linearGradient2498" x1="6.102" x2="6.102" y1="154.582" y2="36.995" gradientTransform="matrix(0.1256322,0,0,0.1256322,11.921746,-1.0005124)" gradientUnits="userSpaceOnUse" xlink:href="#linearGradient4081"/><linearGradient id="linearGradient2501" x1="6.102" x2="6.102" y1="154.582" y2="36.995" gradientTransform="matrix(0.1256322,0,0,0.1256322,11.921746,-1.0005124)" gradientUnits="userSpaceOnUse" xlink:href="#linearGradient4081"/><linearGradient id="linearGradient2504" x1="6.102" x2="6.102" y1="154.582" y2="36.995" gradientTransform="matrix(0.1256322,0,0,0.1256322,11.921746,-1.0005124)" gradientUnits="userSpaceOnUse" xlink:href="#linearGradient4081"/><linearGradient id="linearGradient2506" x1="6.102" x2="6.102" y1="154.582" y2="36.995" gradientUnits="userSpaceOnUse" xlink:href="#linearGradient4081"/><linearGradient id="linearGradient2508" x1="6.102" x2="6.102" y1="154.582" y2="36.995" gradientTransform="matrix(0.1317916,0,0,0.1317916,11.619896,-1.9882468)" gradientUnits="userSpaceOnUse" xlink:href="#linearGradient4081"/><linearGradient id="linearGradient2510" x1="6.102" x2="6.102" y1="154.582" y2="36.995" gradientTransform="matrix(0.1317916,0,0,0.1317916,11.619896,-1.9882468)" gradientUnits="userSpaceOnUse" xlink:href="#linearGradient4081"/><clipPath id="clipPath4974" clipPathUnits="userSpaceOnUse"><path id="path4976" fill="#fff" fill-opacity="1" stroke="none" stroke-dasharray="none" stroke-miterlimit="4" stroke-opacity="1" stroke-width=".5" d="M 16.625,2 C 15.93281,2.046173 15.13978,2.350316 14.5,2.875 C 13.716105,3.517873 13.079371,5.1522168 13.25,6.0625 C 13.337976,6.531842 13.692147,7.1029241 14.03125,7.28125 C 14.662734,7.613335 15.813682,7.0624791 16.875,5.9375 C 18.021489,4.722239 18.547995,3.383178 18.15625,2.625 C 17.915497,2.159052 17.31719,1.953827 16.625,2 z M 10.96875,2.71875 C 10.005789,2.719616 9.496306,3.3967078 9.5,4.6875 C 9.502528,5.57142 9.81322,6.3666318 10.21875,6.5625 C 10.520262,6.708131 10.527801,6.6945361 10.90625,6.5625 C 11.533114,6.343793 12.122053,4.8839409 12,3.90625 C 11.900109,3.106091 11.556193,2.7182209 10.96875,2.71875 z M 7.15625,4.03125 C 6.976067,4.0573035 6.795347,4.173262 6.625,4.34375 C 6.281636,4.687396 6.277056,4.8747068 6.28125,5.53125 C 6.286196,6.305553 6.475145,6.7277249 7,7.28125 C 7.392601,7.695296 7.675716,7.7200481 8.03125,7.34375 C 8.416388,6.936117 8.535971,6.296057 8.40625,5.59375 C 8.208416,4.5226825 7.696799,3.9530895 7.15625,4.03125 z M 4.46875,6.375 C 4.281799,6.4054104 4.1133,6.5115553 3.9375,6.6875 C 3.476154,7.14923 3.798831,8.4188978 4.53125,9.0625 C 5.405425,9.830669 6.111327,9.1273309 5.8125,7.78125 C 5.599846,6.8233425 5.029603,6.2837687 4.46875,6.375 z M 12.5,8.0625 C 11.88094,8.0518483 11.187196,8.1034691 10.46875,8.25 C 8.61799,8.627471 7.13709,9.3254488 6.1875,10.28125 C 5.640611,10.831715 5.327697,11.341306 5.0625,12.125 C 4.420581,14.021963 5.609396,16.720678 7.875,18.5625 C 8.719088,19.248703 9.234152,19.555813 10.09375,19.84375 C 10.539486,19.993058 10.892913,20.027742 11.71875,20 C 12.665466,19.968192 12.858002,19.925916 13.46875,19.625 C 14.363786,19.184011 15.378303,18.163965 15.8125,17.28125 C 16.077385,16.74275 16.119821,16.512622 16.09375,16.0625 C 16.049227,15.293922 15.751092,15.084744 14.78125,15.09375 C 13.39673,15.106604 12.815494,15.427682 12.53125,16.40625 C 12.31656,17.145368 12.079212,17.40625 11.59375,17.40625 C 10.824382,17.40625 10.03125,16.794459 10.03125,16.15625 C 10.03125,15.712256 10.746563,15.05048 12.53125,13.84375 C 15.045366,12.14381 15.909739,11.109639 15.78125,9.96875 C 15.64852,8.7901993 14.35718,8.0944552 12.5,8.0625 z"/></clipPath><clipPath id="clipPath4995" clipPathUnits="userSpaceOnUse"><path id="path4997" fill="#fff" fill-opacity="1" fill-rule="nonzero" stroke="none" stroke-dasharray="none" stroke-dashoffset="0" stroke-linecap="square" stroke-linejoin="miter" stroke-miterlimit="4" stroke-opacity="0" stroke-width="1" d="M 30,0 L 30,22 L 52,22 L 52,0 L 30,0 z M 46.625,2 C 47.31719,1.953827 47.915497,2.159052 48.15625,2.625 C 48.547995,3.383178 48.021489,4.722239 46.875,5.9375 C 45.813682,7.0624791 44.662734,7.613335 44.03125,7.28125 C 43.692147,7.1029241 43.337976,6.531842 43.25,6.0625 C 43.079371,5.1522168 43.716105,3.517873 44.5,2.875 C 45.13978,2.350316 45.93281,2.046173 46.625,2 z M 40.96875,2.71875 C 41.556193,2.7182209 41.900109,3.106091 42,3.90625 C 42.122053,4.8839409 41.533114,6.343793 40.90625,6.5625 C 40.527801,6.6945361 40.520262,6.708131 40.21875,6.5625 C 39.81322,6.3666318 39.502528,5.57142 39.5,4.6875 C 39.496306,3.3967078 40.005789,2.719616 40.96875,2.71875 z M 37.15625,4.03125 C 37.696799,3.9530895 38.208416,4.5226825 38.40625,5.59375 C 38.535971,6.296057 38.416388,6.936117 38.03125,7.34375 C 37.675716,7.7200481 37.392601,7.695296 37,7.28125 C 36.475145,6.7277249 36.286196,6.305553 36.28125,5.53125 C 36.277056,4.8747068 36.281636,4.687396 36.625,4.34375 C 36.795347,4.173262 36.976067,4.0573035 37.15625,4.03125 z M 34.46875,6.375 C 35.029603,6.2837687 35.599846,6.8233425 35.8125,7.78125 C 36.111327,9.1273309 35.405425,9.830669 34.53125,9.0625 C 33.798831,8.4188978 33.476154,7.14923 33.9375,6.6875 C 34.1133,6.5115553 34.281799,6.4054104 34.46875,6.375 z M 42.5,8.0625 C 44.35718,8.0944552 45.64852,8.7901993 45.78125,9.96875 C 45.909739,11.109639 45.045366,12.14381 42.53125,13.84375 C 40.746563,15.05048 40.03125,15.712256 40.03125,16.15625 C 40.03125,16.794459 40.824382,17.40625 41.59375,17.40625 C 42.079212,17.40625 42.31656,17.145368 42.53125,16.40625 C 42.815494,15.427682 43.39673,15.106604 44.78125,15.09375 C 45.751092,15.084744 46.049227,15.293922 46.09375,16.0625 C 46.119821,16.512622 46.077385,16.74275 45.8125,17.28125 C 45.378303,18.163965 44.363786,19.184011 43.46875,19.625 C 42.858002,19.925916 42.665466,19.968192 41.71875,20 C 40.892913,20.027742 40.539486,19.993058 40.09375,19.84375 C 39.234152,19.555813 38.719088,19.248703 37.875,18.5625 C 35.609396,16.720678 34.420581,14.021963 35.0625,12.125 C 35.327697,11.341306 35.640611,10.831715 36.1875,10.28125 C 37.13709,9.3254488 38.61799,8.627471 40.46875,8.25 C 41.187196,8.1034691 41.88094,8.0518483 42.5,8.0625 z" display="inline" opacity="1"/></clipPath><linearGradient id="linearGradient5065" x1="11.509" x2="11.509" y1="6.667" y2="2.688" gradientTransform="translate(-30,-30)" gradientUnits="userSpaceOnUse" xlink:href="#linearGradient4081"/><linearGradient id="linearGradient5068" x1="17.212" x2="17.212" y1="7.381" y2="1.988" gradientTransform="translate(-30,-30)" gradientUnits="userSpaceOnUse" xlink:href="#linearGradient4081"/><linearGradient id="linearGradient5071" x1="7.374" x2="7.374" y1="7.605" y2="4.035" gradientTransform="translate(-30,-30)" gradientUnits="userSpaceOnUse" xlink:href="#linearGradient4081"/><linearGradient id="linearGradient5074" x1="4.95" x2="4.95" y1="9.393" y2="6.364" gradientTransform="translate(-30,-30)" gradientUnits="userSpaceOnUse" xlink:href="#linearGradient4081"/><linearGradient id="linearGradient5077" x1="13" x2="13" y1="20" y2="7.996" gradientTransform="translate(-30,-30)" gradientUnits="userSpaceOnUse" xlink:href="#linearGradient4081"/><linearGradient id="linearGradient3345" x1="6.839" x2="6.839" y1="16.3" y2="6.053" gradientUnits="userSpaceOnUse" xlink:href="#linearGradient4081"/><linearGradient id="linearGradient3355" x1="12.316" x2="12.316" y1="18.468" y2="3.482" gradientUnits="userSpaceOnUse" xlink:href="#linearGradient4081"/><linearGradient id="linearGradient3357" x1="18.765" x2="18.765" y1="21" y2=".967" gradientUnits="userSpaceOnUse" xlink:href="#linearGradient4081"/><linearGradient id="linearGradient3522" x1="6.839" x2="6.839" y1="16.3" y2="6.053" gradientTransform="translate(1,0)" gradientUnits="userSpaceOnUse" xlink:href="#linearGradient4081"/><linearGradient id="linearGradient3527" x1="6.839" x2="6.839" y1="16.3" y2="6.053" gradientTransform="translate(1,0)" gradientUnits="userSpaceOnUse" xlink:href="#linearGradient4081"/><linearGradient id="linearGradient3538" x1="16.5" x2="16.5" y1="19.543" y2="2.5" gradientTransform="translate(1,0)" gradientUnits="userSpaceOnUse" xlink:href="#linearGradient4081"/><linearGradient id="linearGradient3540" x1="14.525" x2="14.525" y1="17.419" y2="4.625" gradientTransform="translate(1,0)" gradientUnits="userSpaceOnUse" xlink:href="#linearGradient4081"/><linearGradient id="linearGradient3542" x1="10.505" x2="10.505" y1="15.281" y2="6.746" gradientTransform="translate(1,0)" gradientUnits="userSpaceOnUse" xlink:href="#linearGradient4081"/><linearGradient id="linearGradient3552" x1="16.5" x2="16.5" y1="19.543" y2="2.5" gradientTransform="translate(1,0)" gradientUnits="userSpaceOnUse" xlink:href="#linearGradient4081"/><linearGradient id="linearGradient3690" x1="9" x2="9" y1="20" y2="4" gradientUnits="userSpaceOnUse" xlink:href="#linearGradient4081"/><linearGradient id="linearGradient3696" x1="9" x2="9" y1="20" y2="4" gradientTransform="translate(0,1)" gradientUnits="userSpaceOnUse" xlink:href="#linearGradient4081"/><linearGradient id="linearGradient3698" x1="9" x2="9" y1="20" y2="4" gradientUnits="userSpaceOnUse" xlink:href="#linearGradient4081"/><linearGradient id="linearGradient3694" x1="39" x2="39" y1="19" y2="2.969" gradientTransform="translate(-30,0)" gradientUnits="userSpaceOnUse" xlink:href="#linearGradient4081"/><linearGradient id="linearGradient3700" x1="39" x2="39" y1="19" y2="2.969" gradientTransform="translate(0,1)" gradientUnits="userSpaceOnUse" xlink:href="#linearGradient4081"/><linearGradient id="linearGradient3702" x1="39" x2="39" y1="19" y2="2.969" gradientUnits="userSpaceOnUse" xlink:href="#linearGradient4081"/><linearGradient id="linearGradient3716" x1="-29" x2="-9" y1="31" y2="31" gradientUnits="userSpaceOnUse" xlink:href="#linearGradient4081"/><linearGradient id="linearGradient3719" x1="-20" x2="-20" y1="38" y2="23.964" gradientTransform="translate(30,-20)" gradientUnits="userSpaceOnUse" xlink:href="#linearGradient4081"/><linearGradient id="linearGradient3687" x1="6.359" x2="6.359" y1="20.947" y2="10.076" gradientUnits="userSpaceOnUse" xlink:href="#linearGradient4081"/><linearGradient id="linearGradient2913" x1="4.548" x2="4.548" y1="9.953" y2="21.009" gradientTransform="matrix(-1,0,0,-1,21.954435,22.02535)" gradientUnits="userSpaceOnUse" xlink:href="#linearGradient4081"/><linearGradient id="linearGradient3126" x1="4.548" x2="4.548" y1="1.143" y2="21.009" gradientTransform="matrix(-1,0,0,-1,21.954435,22.02535)" gradientUnits="userSpaceOnUse" xlink:href="#linearGradient4081"/><linearGradient id="linearGradient3687-4" x1="6.271" x2="6.271" y1="9.936" y2="20.915" gradientUnits="userSpaceOnUse" xlink:href="#StandardGradient"/><linearGradient id="StandardGradient" x1="10.71" x2="10.71" y1="1.996" y2="18.974" gradientTransform="matrix(0.9984539,0,0,0.9984539,-0.0459776,0.05767558)" gradientUnits="userSpaceOnUse"><stop id="stop3277" offset="0" stop-color="#000" stop-opacity=".863"/><stop id="stop3279" offset="1" stop-color="#000" stop-opacity=".471"/></linearGradient><clipPath id="clipPath3750" clipPathUnits="userSpaceOnUse"><path id="path3752" fill="#f0f" fill-opacity="1" stroke="none" d="m -30,0 0,22 22,0 0,-22 -22,0 z m 8.375,10.03125 c 0.429303,-0.035676 0.889414,0.127389 1.1875,0.4375 l 2,2 c 0.519186,0.533762 0.519186,1.497488 0,2.03125 l -2,2 c -0.262361,0.270529 -0.653931,0.429 -1.03125,0.4375 l -2,0 -3.78125,3.78125 c -0.396145,0.395002 -1.072605,0.395002 -1.46875,0 -0.396145,-0.395003 -0.396145,-1.042497 0,-1.4375 l 3.78125,-3.75 c -1.14e-4,-0.0105 -1.14e-4,-0.02075 0,-0.03125 l 0,-2.03125 c 0.0085,-0.376231 0.166188,-0.738396 0.4375,-1 l 2.03125,-2 c 0.223823,-0.237063 0.520468,-0.3917 0.84375,-0.4375 z" display="inline"/></clipPath><filter id="filter3754" color-interpolation-filters="sRGB"><feGaussianBlur id="feGaussianBlur3756" stdDeviation=".33"/></filter><linearGradient id="linearGradient3833" x1="54" x2="59" y1="3.5" y2="3.5" gradientTransform="translate(-53,53)" gradientUnits="userSpaceOnUse" xlink:href="#StandardGradient"/><linearGradient id="linearGradient3779" x1="10.71" x2="10.71" y1="1.996" y2="18.974" gradientTransform="matrix(0.9984539,0,0,0.9984539,-0.0459776,0.05767558)" gradientUnits="userSpaceOnUse"><stop id="stop3781" offset="0" stop-color="#000" stop-opacity=".863"/><stop id="stop3783" offset="1" stop-color="#000" stop-opacity=".471"/></linearGradient><linearGradient id="linearGradient3829" x1="54" x2="59" y1="3.5" y2="3.5" gradientTransform="translate(-45,53)" gradientUnits="userSpaceOnUse" xlink:href="#SpecificGradient"/><linearGradient id="SpecificGradient" x1="10.762" x2="10.762" y1="4" y2="18.011" gradientUnits="userSpaceOnUse"><stop id="stop3292" offset="0" stop-color="#a50000" stop-opacity="1"/><stop id="stop3294" offset="1" stop-color="#e73800" stop-opacity="1"/></linearGradient><linearGradient id="linearGradient3809" x1="6.271" x2="6.271" y1="9.936" y2="20.915" gradientUnits="userSpaceOnUse" xlink:href="#StandardGradient"/><clipPath id="clipPath3750-0" clipPathUnits="userSpaceOnUse"><path id="path3752-5" fill="#f0f" fill-opacity="1" stroke="none" d="m -30,0 0,22 22,0 0,-22 -22,0 z m 19.9375,1 c 0.2643826,0 0.5206775,0.1149992 0.71875,0.3125 0.396146,0.395003 0.396146,1.042497 0,1.4375 L -13.125,6.5 c 1.15e-4,0.0105 1.15e-4,0.02075 0,0.03125 l 0,2 c -0.0085,0.376231 -0.166188,0.769646 -0.4375,1.03125 l -2.03125,2 c -0.223822,0.237063 -0.520469,0.3917 -0.84375,0.4375 -0.429304,0.03568 -0.858164,-0.127389 -1.15625,-0.4375 l -2.03125,-2 c -0.519186,-0.533762 -0.519186,-1.497488 0,-2.03125 l 2.03125,-2 c 0.26236,-0.270529 0.62268,-0.46025 1,-0.46875 l 2.03125,0 3.78125,-3.75 C -10.583177,1.1149992 -10.326883,1 -10.0625,1 z" display="inline"/></clipPath><filter id="filter3758" color-interpolation-filters="sRGB"><feGaussianBlur id="feGaussianBlur3760" stdDeviation=".33"/></filter><linearGradient id="linearGradient2913-9" x1="7.359" x2="7.359" y1="21.007" y2="10.015" gradientTransform="matrix(-1,0,0,-1,21.954435,22.02535)" gradientUnits="userSpaceOnUse" xlink:href="#StandardGradient-3"/><linearGradient id="StandardGradient-3" x1="10.71" x2="10.71" y1="1.996" y2="18.974" gradientTransform="matrix(0.9984539,0,0,0.9984539,-0.0459776,0.05767558)" gradientUnits="userSpaceOnUse"><stop id="stop3277-3" offset="0" stop-color="#000" stop-opacity=".863"/><stop id="stop3279-1" offset="1" stop-color="#000" stop-opacity=".471"/></linearGradient><linearGradient id="linearGradient2965" x1="7.359" x2="7.359" y1="21.007" y2="10.015" gradientTransform="matrix(-1,0,0,-1,21.954435,22.02535)" gradientUnits="userSpaceOnUse" xlink:href="#StandardGradient-3"/><linearGradient id="linearGradient5089" x1="6.271" x2="6.271" y1="9.936" y2="20.915" gradientUnits="userSpaceOnUse" xlink:href="#StandardGradient"/><linearGradient id="linearGradient5094" x1="6.271" x2="6.271" y1="9.936" y2="20.915" gradientUnits="userSpaceOnUse" xlink:href="#StandardGradient"/><linearGradient id="linearGradient5098" x1="6.271" x2="6.271" y1="9.936" y2="20.915" gradientUnits="userSpaceOnUse" xlink:href="#StandardGradient"/></defs><metadata id="metadata7"/><g id="layer1" display="inline"><path id="path5096" fill="#fff" fill-opacity="1" stroke="none" d="M 19.9375 0.0625 C 19.399006 0.0625 18.919362 0.30041864 18.5625 0.65625 L 15.0625 4.125 L 13.40625 4.125 A 0.94536548 0.94536548 0 0 0 13.375 4.125 C 12.710082 4.1399788 12.157378 4.4356331 11.75 4.84375 C 11.740518 4.8532497 11.72807 4.8653897 11.71875 4.875 L 9.71875 6.84375 A 0.94536548 0.94536548 0 0 0 9.6875 6.875 C 9.0473686 7.533103 9.0264026 8.4061719 9.28125 9.21875 C 8.9662192 9.1130116 8.6211929 9.0654996 8.28125 9.09375 A 0.94536548 0.94536548 0 0 0 8.25 9.09375 C 7.7279305 9.1677126 7.240704 9.4076037 6.875 9.78125 C 6.8649968 9.7914704 6.8535792 9.8020894 6.84375 9.8125 L 4.84375 11.78125 C 4.3903341 12.218442 4.1392312 12.811204 4.125 13.4375 A 0.94536548 0.94536548 0 0 0 4.125 13.46875 L 4.125 15.15625 L 0.625 18.625 C -0.13689101 19.384695 -0.13689101 20.615305 0.625 21.375 C 1.4021518 22.149907 2.6290988 22.149909 3.40625 21.375 L 6.90625 17.875 L 8.53125 17.875 A 0.94536548 0.94536548 0 0 0 8.5625 17.875 C 9.1797381 17.861095 9.7605487 17.616894 10.21875 17.15625 L 10.25 17.15625 L 12.21875 15.15625 A 0.94536548 0.94536548 0 0 0 12.25 15.15625 C 12.971791 14.414195 12.947341 13.411507 12.53125 12.53125 C 12.899153 12.700716 13.240692 12.972035 13.65625 12.9375 A 0.94536548 0.94536548 0 0 0 13.6875 12.9375 C 14.209568 12.863537 14.696794 12.62365 15.0625 12.25 C 15.072503 12.239779 15.083921 12.229161 15.09375 12.21875 L 17.09375 10.25 C 17.574242 9.7867004 17.798297 9.1876109 17.8125 8.5625 A 0.94536548 0.94536548 0 0 0 17.8125 8.53125 L 17.8125 6.875 L 21.3125 3.40625 C 22.074392 2.6465558 22.074392 1.4159442 21.3125 0.65625 C 20.955638 0.30041864 20.475994 0.0625 19.9375 0.0625 z M 19.9375 1 C 20.201883 1 20.458177 1.1149992 20.65625 1.3125 C 21.052396 1.707503 21.052396 2.354997 20.65625 2.75 L 16.875 6.5 C 16.875115 6.5105 16.875115 6.52075 16.875 6.53125 L 16.875 8.53125 C 16.866452 8.907481 16.708812 9.300896 16.4375 9.5625 L 14.40625 11.5625 C 14.182428 11.799563 13.885781 11.9542 13.5625 12 C 13.133196 12.035677 12.704336 11.872611 12.40625 11.5625 L 10.375 9.5625 C 9.855814 9.028738 9.855814 8.065012 10.375 7.53125 L 12.40625 5.53125 C 12.66861 5.260721 13.02893 5.071 13.40625 5.0625 L 15.4375 5.0625 L 19.21875 1.3125 C 19.416823 1.1149992 19.673117 1 19.9375 1 z M 8.375 10.03125 C 8.804303 9.9955735 9.264414 10.158639 9.5625 10.46875 L 11.5625 12.46875 C 12.081686 13.002512 12.081686 13.966238 11.5625 14.5 L 9.5625 16.5 C 9.300139 16.770529 8.908569 16.929 8.53125 16.9375 L 6.53125 16.9375 L 2.75 20.71875 C 2.353855 21.113752 1.677396 21.113752 1.28125 20.71875 C 0.885105 20.323747 0.885105 19.676253 1.28125 19.28125 L 5.0625 15.53125 C 5.062386 15.52075 5.062386 15.5105 5.0625 15.5 L 5.0625 13.46875 C 5.071049 13.092519 5.228688 12.730354 5.5 12.46875 L 7.53125 10.46875 C 7.755073 10.231687 8.051718 10.07705 8.375 10.03125 z" display="inline" opacity=".15"/><path id="rect2911" fill="url(#linearGradient3809)" fill-opacity="1" stroke="none" d="M 8.385832,10.017557 C 8.06255,10.063357 7.75641,10.221641 7.532587,10.458704 L 5.510082,12.475378 C 5.23877,12.736982 5.076207,13.107484 5.067658,13.483715 l 0,2.016674 c -1.14e-4,0.0105 -1.14e-4,0.02101 0,0.03151 l -3.783102,3.734916 c -0.396145,0.395003 -0.396145,1.054482 0,1.449485 0.396146,0.395002 1.057531,0.395002 1.453676,0 l 3.783102,-3.766428 2.022506,0 c 0.377319,-0.0085 0.748892,-0.170618 1.011253,-0.441147 l 2.022506,-2.016674 c 0.519186,-0.533762 0.519186,-1.482912 0,-2.016674 L 9.555093,10.458704 C 9.257007,10.148593 8.815135,9.9818805 8.385832,10.017557 z" display="inline"/><path id="path3691" fill="red" fill-opacity="1" stroke="none" d="m -11.875,32.46875 -6.84375,6.8125 c -0.391737,0.391737 -0.391737,1.045763 0,1.4375 0.391737,0.391737 1.045763,0.391737 1.4375,0 L -10.3125,33.75 c -0.560755,-0.381592 -1.069218,-0.818922 -1.5625,-1.28125 z" display="inline" opacity=".2"/><path id="path3693" fill="red" stroke="none" d="M 10.84375,7.5625 A 1.4363353,1.4363353 0 0 0 10,8 l -2,2 a 1.4363353,1.4363353 0 0 0 -0.4375,1 l 0,2 A 1.4363353,1.4363353 0 0 0 9,14.4375 l 2,0 A 1.4363353,1.4363353 0 0 0 12,14 l 2,-2 a 1.4363353,1.4363353 0 0 0 0,-2 L 12,8 A 1.4363353,1.4363353 0 0 0 10.84375,7.5625 z" display="inline" opacity=".2" transform="translate(-22.5625,22.5625)"/><path id="path3689" fill="#000" fill-opacity="1" stroke="none" d="m 8.375,10.03125 c -0.323282,0.0458 -0.619927,0.200437 -0.84375,0.4375 l -2.03125,2 c -0.271312,0.261604 -0.428952,0.623769 -0.4375,1 l 0,1 c 0.0085,-0.376231 0.166188,-0.738396 0.4375,-1 l 2.03125,-2 c 0.223823,-0.237063 0.520468,-0.3917 0.84375,-0.4375 0.429303,-0.03568 0.889414,0.127389 1.1875,0.4375 l 2,2 c 0.14354,0.147569 0.248329,0.337736 0.3125,0.53125 0.181133,-0.511967 0.07002,-1.137993 -0.3125,-1.53125 l -2,-2 C 9.264414,10.158639 8.804303,9.9955735 8.375,10.03125 z m -3.3125,5.5 -3.78125,3.75 C 0.950352,19.611194 0.903104,20.10927 1.125,20.5 1.1702,20.41689 1.21146,20.350839 1.28125,20.28125 l 3.78125,-3.75 c -1.15e-4,-0.0105 -1.15e-4,-0.02075 0,-0.03125 l 0,-0.96875 z" display="inline" opacity=".5"/><rect id="rect3825" width="5" height="5" x="1" y="54" fill="url(#linearGradient3833)" fill-opacity="1" stroke="none" display="inline" transform="matrix(0,1,1,0,0,0)"/><rect id="rect3808" width="5" height="5" x="9" y="54" fill="url(#linearGradient3829)" fill-opacity="1" stroke="none" display="inline" transform="matrix(0,1,1,0,0,0)"/><path id="path3734" fill="#fff" fill-opacity="1" stroke="none" d="m 11.875,14 c -0.06472,0.182918 -0.175832,0.359495 -0.3125,0.5 l -2,2 c -0.262361,0.270529 -0.653931,0.429 -1.03125,0.4375 l -2,0 L 2.75,20.71875 c -0.396145,0.395002 -1.072605,0.395002 -1.46875,0 C 1.216,20.65369 1.168754,20.577045 1.125,20.5 c -0.211364,0.388659 -0.170105,0.893336 0.15625,1.21875 0.396145,0.395002 1.072605,0.395002 1.46875,0 l 3.78125,-3.78125 2,0 C 8.908569,17.929 9.300139,17.770529 9.5625,17.5 l 2,-2 c 0.375646,-0.386193 0.480436,-0.993569 0.3125,-1.5 z" display="inline" opacity=".3"/><path id="path2911" fill="url(#linearGradient2965)" fill-opacity="1" stroke="none" d="m 13.568604,12.007793 c 0.323281,-0.0458 0.629422,-0.204084 0.853244,-0.441147 l 2.022506,-2.016674 c 0.271312,-0.261604 0.433875,-0.632106 0.442423,-1.008337 l 0,-2.016674 c 1.15e-4,-0.0105 1.15e-4,-0.02101 0,-0.03151 l 3.783102,-3.734916 c 0.396146,-0.395003 0.396146,-1.054482 0,-1.449485 -0.396145,-0.3950016 -1.05753,-0.3950016 -1.453676,0 l -3.783102,3.766428 -2.022505,0 c -0.37732,0.0085 -0.748893,0.170618 -1.011253,0.441147 l -2.022506,2.016674 c -0.519186,0.533762 -0.519186,1.482912 0,2.016674 l 2.022506,2.016673 c 0.298086,0.310111 0.739957,0.476824 1.169261,0.441147 z" display="inline"/><path id="path3687" fill="#000" fill-opacity="1" stroke="none" d="m 19.9375,1 c -0.264383,0 -0.520677,0.1149992 -0.71875,0.3125 l -3.78125,3.75 -2.03125,0 c -0.37732,0.0085 -0.73764,0.198221 -1,0.46875 l -2.03125,2 c -0.374247,0.3847534 -0.4777922,0.9947382 -0.3125,1.5 0.06453,-0.1873951 0.172924,-0.3565058 0.3125,-0.5 l 2.03125,-2 c 0.26236,-0.270529 0.62268,-0.46025 1,-0.46875 l 2.03125,0 3.78125,-3.75 c 0.396146,-0.3950016 1.041355,-0.3950016 1.4375,0 0.06263,0.062453 0.113422,0.1451646 0.15625,0.21875 C 21.04055,2.1394236 20.989762,1.6450498 20.65625,1.3125 20.458177,1.1149992 20.201883,1 19.9375,1 z" display="inline" opacity=".5"/><path id="path3734-2" fill="#fff" fill-opacity="1" stroke="none" d="M 20.8125,2.53125 C 20.76967,2.604835 20.71888,2.6875468 20.65625,2.75 L 16.875,6.5 c 1.15e-4,0.0105 1.15e-4,0.02075 0,0.03125 l 0,0.96875 3.78125,-3.75 c 0.333512,-0.3325498 0.3843,-0.8269236 0.15625,-1.21875 z m -3.9375,6 C 16.8665,8.907481 16.708812,9.300896 16.4375,9.5625 l -2.03125,2 C 14.182428,11.799563 13.885781,11.9542 13.5625,12 13.133196,12.03568 12.704336,11.872611 12.40625,11.5625 l -2.03125,-2 C 10.230061,9.4134914 10.126515,9.2269294 10.0625,9.03125 9.8869953,9.5409168 9.9953901,10.172232 10.375,10.5625 l 2.03125,2 c 0.298086,0.310111 0.726946,0.473177 1.15625,0.4375 0.323281,-0.0458 0.619928,-0.200437 0.84375,-0.4375 l 2.03125,-2 c 0.271312,-0.261604 0.428952,-0.655019 0.4375,-1.03125 l 0,-1 z" display="inline" opacity=".3"/></g></svg>